<?xml version="1.0" encoding="UTF-8" standalone="no"?>
<!-- Created with Inkscape (http://www.inkscape.org/) -->

<svg
   xmlns:dc="http://purl.org/dc/elements/1.1/"
   xmlns:cc="http://creativecommons.org/ns#"
   xmlns:rdf="http://www.w3.org/1999/02/22-rdf-syntax-ns#"
   xmlns:svg="http://www.w3.org/2000/svg"
   xmlns="http://www.w3.org/2000/svg"
   xmlns:sodipodi="http://sodipodi.sourceforge.net/DTD/sodipodi-0.dtd"
   xmlns:inkscape="http://www.inkscape.org/namespaces/inkscape"
   width="112.25125"
   height="112.25625"
   id="svg5311"
   version="1.1"
   inkscape:version="0.91pre2 r13555"
   viewBox="0 0 112.25125 112.25625"
   sodipodi:docname="coffee.svg"
   inkscape:export-filename="/home/joe/summit/web/art/coffee.png"
   inkscape:export-xdpi="149.93152"
   inkscape:export-ydpi="149.93152">
  <defs
     id="defs5313" />
  <sodipodi:namedview
     id="base"
     pagecolor="#ffffff"
     bordercolor="#666666"
     borderopacity="1.0"
     inkscape:pageopacity="0.0"
     inkscape:pageshadow="2"
     inkscape:zoom="5.0509438"
     inkscape:cx="4.5511064"
     inkscape:cy="55.732158"
     inkscape:document-units="px"
     inkscape:current-layer="layer1"
     showgrid="false"
     fit-margin-top="0"
     fit-margin-left="0"
     fit-margin-right="0"
     fit-margin-bottom="0"
     inkscape:window-width="1345"
     inkscape:window-height="746"
     inkscape:window-x="21"
     inkscape:window-y="0"
     inkscape:window-maximized="1" />
  <metadata
     id="metadata5316">
    <rdf:RDF>
      <cc:Work
         rdf:about="">
        <dc:format>image/svg+xml</dc:format>
        <dc:type
           rdf:resource="http://purl.org/dc/dcmitype/StillImage" />
        <dc:title></dc:title>
      </cc:Work>
    </rdf:RDF>
  </metadata>
  <g
     inkscape:label="Layer 1"
     inkscape:groupmode="layer"
     id="layer1"
     transform="translate(-437.57516,-266.81901)">
    <path
       inkscape:connector-curvature="0"
       id="path2008"
       style="fill:#eeac34;fill-opacity:1;fill-rule:nonzero;stroke:none"
       d="m 437.57515,266.81901 112.25125,0 0,112.25625 -112.25125,0 0,-112.25625 z" />
    <path
       inkscape:connector-curvature="0"
       id="path2010"
       style="fill:#ec9721;fill-opacity:1;fill-rule:nonzero;stroke:none"
       d="m 549.8264,379.07401 -75.435,0 -20.26875,-20.26875 0,-70.56625 c 0,-0.63375 0.5125,-1.1525 1.1475,-1.1525 l 64.41376,0 c 0.59625,0 1.07,0.46 1.12875,1.04125 0.4775,0.0487 19.38374,18.925 29.01374,28.745 l 0,62.20125" />
    <path
       inkscape:connector-curvature="0"
       id="path2012"
       style="fill:#243442;fill-opacity:1;fill-rule:nonzero;stroke:none"
       d="m 513.36641,309.16776 c 0,0.31625 -0.25875,0.575 -0.57625,0.575 l -6.21125,0 c -0.3175,0 -0.57625,-0.25875 -0.57625,-0.575 l 0,-2.6025 c 0,-0.3175 0.25875,-0.57625 0.57625,-0.57625 l 6.21125,0 c 0.3175,0 0.57625,0.25875 0.57625,0.57625 l 0,2.6025" />
    <path
       inkscape:connector-curvature="0"
       id="path2014"
       style="fill:#243442;fill-opacity:1;fill-rule:nonzero;stroke:none"
       d="m 454.12265,355.15401 66.71376,0 0,3.6525 -66.71376,0 0,-3.6525 z" />
    <path
       inkscape:connector-curvature="0"
       id="path2016"
       style="fill:#acbbc7;fill-opacity:1;fill-rule:nonzero;stroke:none"
       d="m 454.12265,306.94526 32.44125,0 0,48.2075 -32.44125,0 0,-48.2075 z" />
    <path
       inkscape:connector-curvature="0"
       id="path2018"
       style="fill:#243442;fill-opacity:1;fill-rule:nonzero;stroke:none"
       d="m 520.83641,288.23901 c 0,-0.63375 -0.5175,-1.1525 -1.1525,-1.1525 l -64.41376,0 c -0.635,0 -1.1475,0.51875 -1.1475,1.1525 l 0,18.70625 66.71376,0 0,-18.70625" />
    <path
       inkscape:connector-curvature="0"
       id="path2020"
       style="fill:#243442;fill-opacity:1;fill-rule:nonzero;stroke:none"
       d="m 477.4239,336.87276 c 0,3.91125 -3.16875,7.085 -7.08,7.085 -3.91125,0 -7.08,-3.17375 -7.08,-7.085 0,-3.90625 3.16875,-7.08 7.08,-7.08 3.91125,0 7.08,3.17375 7.08,7.08" />
    <path
       inkscape:connector-curvature="0"
       id="path2022"
       style="fill:#acbbc7;fill-opacity:1;fill-rule:nonzero;stroke:none"
       d="m 475.06015,336.87276 c 0,2.6075 -2.11375,4.72125 -4.71625,4.72125 -2.6075,0 -4.7175,-2.11375 -4.7175,-4.72125 0,-2.6025 2.11,-4.7175 4.7175,-4.7175 2.6025,0 4.71625,2.115 4.71625,4.7175" />
    <path
       inkscape:connector-curvature="0"
       id="path2024"
       style="fill:#ffffff;fill-opacity:1;fill-rule:nonzero;stroke:none"
       d="m 466.96015,333.49276 c -0.48375,0.48875 -0.61125,1.1475 -0.27875,1.48 l 5.56125,5.56125 c 0.3325,0.3325 0.99125,0.205 1.48,-0.2775 0.4825,-0.48875 0.61,-1.1475 0.2825,-1.48 l -5.56625,-5.56125 c -0.3275,-0.3325 -0.99125,-0.205 -1.47875,0.2775" />
    <path
       inkscape:connector-curvature="0"
       id="path2026"
       style="fill:#acbbc7;fill-opacity:1;fill-rule:nonzero;stroke:none"
       d="m 509.68391,315.65151 -15.98125,0 c -0.77125,0 -1.61625,0 -2.74875,0 -1.3475,0 3.1,4.815 3.1,4.815 l -0.005,-0.005 c 0.3225,3.06625 0.92875,7.31875 2.085,11.9575 2.27125,9.11625 5.48375,13.6675 5.48375,13.6675 l 16.1325,0 c 0,0 3.21375,-4.55125 5.48375,-13.6675 2.27125,-9.11625 2.4275,-16.7675 2.4275,-16.7675 l -15.9775,0" />
    <path
       inkscape:connector-curvature="0"
       id="path2028"
       style="fill:#243442;fill-opacity:1;fill-rule:nonzero;stroke:none"
       d="m 503.69766,346.08651 -17.13376,0 0,9.0675 34.27251,0 0,-9.0675 -17.13875,0" />
    <path
       inkscape:connector-curvature="0"
       id="path2030"
       style="fill:#243442;fill-opacity:1;fill-rule:nonzero;stroke:none"
       d="m 512.82891,314.82151 -6.28875,0 c -0.29875,0 -0.5375,-0.23875 -0.5375,-0.5375 l 0,-0.59 c 0,-0.29375 0.23875,-0.5325 0.5375,-0.5325 l 6.28875,0 c 0.2925,0 0.5375,0.23875 0.5375,0.5325 l 0,0.59 c 0,0.29875 -0.245,0.5375 -0.5375,0.5375" />
    <path
       inkscape:connector-curvature="0"
       id="path2032"
       style="fill:#acbbc7;fill-opacity:1;fill-rule:nonzero;stroke:none"
       d="m 533.27266,323.69401 c 0.0588,-2.6075 -1.235,-4.14125 -2.32375,-4.97125 -1.5575,-1.18125 -3.58375,-1.65 -5.34125,-1.81625 -0.0488,0.78125 -0.1275,1.895 -0.26375,3.27125 1.1475,0.1175 2.33875,0.4 3.13,1.00125 0.7275,0.55125 1.06375,1.3525 1.04375,2.45125 -0.165,7.43625 -3.78875,11.51875 -7.9,14.20875 -0.7225,2.06 -1.445,3.735 -2.07,5.02 5.81,-2.8375 13.47625,-7.69625 13.725,-19.165" />
    <path
       inkscape:connector-curvature="0"
       id="path2034"
       style="fill:#898989;fill-opacity:1;fill-rule:nonzero;stroke:none"
       d="m 467.7364,350.77901 c -1.00125,0 -1.81625,-0.81125 -1.81625,-1.8125 0,-1 0.815,-1.81625 1.81625,-1.81625 1,0 1.81125,0.81625 1.81125,1.81625 0,1.00125 -0.81125,1.8125 -1.81125,1.8125" />
    <path
       inkscape:connector-curvature="0"
       id="path2036"
       style="fill:#ffffff;fill-opacity:1;fill-rule:nonzero;stroke:none"
       d="m 469.2989,348.96651 c 0,0.865 -0.69875,1.5625 -1.5625,1.5625 -0.865,0 -1.5675,-0.6975 -1.5675,-1.5625 0,-0.86375 0.7025,-1.5675 1.5675,-1.5675 0.86375,0 1.5625,0.70375 1.5625,1.5675" />
    <path
       inkscape:connector-curvature="0"
       id="path2038"
       style="fill:#898989;fill-opacity:1;fill-rule:nonzero;stroke:none"
       d="m 472.9514,350.77901 c -1.00125,0 -1.8175,-0.81125 -1.8175,-1.8125 0,-1 0.81625,-1.81625 1.8175,-1.81625 0.995,0 1.81125,0.81625 1.81125,1.81625 0,1.00125 -0.81625,1.8125 -1.81125,1.8125" />
    <path
       inkscape:connector-curvature="0"
       id="path2040"
       style="fill:#ffffff;fill-opacity:1;fill-rule:nonzero;stroke:none"
       d="m 474.5139,348.96651 c 0,0.865 -0.70375,1.5625 -1.5625,1.5625 -0.865,0 -1.5675,-0.6975 -1.5675,-1.5625 0,-0.86375 0.7025,-1.5675 1.5675,-1.5675 0.85875,0 1.5625,0.70375 1.5625,1.5675" />
    <path
       inkscape:connector-curvature="0"
       id="path2042"
       style="fill:#243442;fill-opacity:1;fill-rule:nonzero;stroke:none"
       d="m 524.72391,314.74776 c -2.69625,-0.2 -10.58125,-0.75625 -15.04,-0.75625 -4.4575,0 -12.34375,0.55625 -15.04375,0.75625 -0.5275,0.04 -0.9375,0.425 -0.9375,0.88375 l 0,0.02 31.95875,0 0,-0.02 c 0,-0.45875 -0.40625,-0.84375 -0.9375,-0.88375" />
    <path
       inkscape:connector-curvature="0"
       id="path2044"
       style="fill:#898989;fill-opacity:1;fill-rule:nonzero;stroke:none"
       d="m 462.6389,325.93026 c -0.28875,0 -0.5225,-0.235 -0.5225,-0.5225 l 0,-15.41 c 0,-0.28875 0.23375,-0.5225 0.5225,-0.5225 l 15.41,0 c 0.2875,0 0.5225,0.23375 0.5225,0.5225 l 0,15.41 c 0,0.2875 -0.235,0.5225 -0.5225,0.5225 l -15.41,0" />
    <path
       inkscape:connector-curvature="0"
       id="path2046"
       style="fill:#456785;fill-opacity:1;fill-rule:nonzero;stroke:none"
       d="m 462.56015,325.40776 0,-15.41 0.0787,-0.0788 15.41,0 0.0725,0.0788 0,15.41 -0.0725,0.0775 -15.41,0 -0.0787,-0.0775" />
    <path
       inkscape:connector-curvature="0"
       id="path2048"
       style="fill:#eeac34;fill-opacity:1;fill-rule:nonzero;stroke:none"
       d="m 472.36015,317.05276 3.6175,0 c 0.7575,0 1.3675,-0.61 1.3675,-1.3675 l 0,-3.6225 c 0,-0.7525 -0.61,-1.3625 -1.3675,-1.3625 l -3.6175,0 c -0.7575,0 -1.3675,0.61 -1.3675,1.3625 l 0,3.6225 c 0,0.7575 0.61,1.3675 1.3675,1.3675" />
    <path
       inkscape:connector-curvature="0"
       id="path2050"
       style="fill:#ffffff;fill-opacity:1;fill-rule:nonzero;stroke:none"
       d="m 474.77265,315.26526 c 0,0.3325 -0.26875,0.60125 -0.60625,0.60125 -0.33125,0 -0.6,-0.26875 -0.6,-0.60125 0,-0.33625 0.26875,-0.605 0.6,-0.605 0.3375,0 0.60625,0.26875 0.60625,0.605" />
    <path
       inkscape:connector-curvature="0"
       id="path2052"
       style="fill:#ffffff;fill-opacity:1;fill-rule:nonzero;stroke:none"
       d="m 476.51515,313.68401 -0.14125,-0.0738 c -0.5275,-0.7025 -1.32875,-1.10375 -2.2075,-1.10375 -0.87375,0 -1.675,0.40125 -2.2025,1.10375 l -0.24875,0.0387 -0.0337,-0.24875 c 0.59125,-0.795 1.49875,-1.25 2.485,-1.25 0.99125,0 1.9,0.455 2.49,1.25 l -0.0337,0.24875 -0.1075,0.035" />
    <path
       inkscape:connector-curvature="0"
       id="path2054"
       style="fill:#ffffff;fill-opacity:1;fill-rule:nonzero;stroke:none"
       d="m 475.90015,314.30401 -0.14625,-0.0788 c -0.3525,-0.53625 -0.9475,-0.85875 -1.5875,-0.85875 -0.64,0 -1.23,0.3225 -1.58125,0.85875 l -0.245,0.0487 -0.0537,-0.24375 c 0.42,-0.64 1.12375,-1.015 1.88,-1.015 0.7625,0 1.465,0.375 1.88,1.015 l -0.0487,0.24375 -0.0975,0.03" />
    <path
       inkscape:connector-curvature="0"
       id="path2056"
       style="fill:#ffffff;fill-opacity:1;fill-rule:nonzero;stroke:none"
       d="m 473.0389,314.90901 -0.0738,-0.0138 -0.0875,-0.24 c 0.23375,-0.4975 0.7425,-0.82 1.28875,-0.82 0.5525,0 1.06,0.3225 1.29375,0.82 l -0.0875,0.24 -0.23375,-0.0888 c -0.17625,-0.37625 -0.5575,-0.62 -0.9725,-0.62 -0.41,0 -0.79125,0.24375 -0.96625,0.62 l -0.16125,0.1025" />
    <path
       inkscape:connector-curvature="0"
       id="path2058"
       style="fill:#224b6f;fill-opacity:1;fill-rule:nonzero;stroke:none"
       d="m 472.36015,324.70401 3.6175,0 c 0.7575,0 1.3675,-0.61 1.3675,-1.3625 l 0,-3.6225 c 0,-0.7525 -0.61,-1.3675 -1.3675,-1.3675 l -3.6175,0 c -0.7575,0 -1.3675,0.615 -1.3675,1.3675 l 0,3.6225 c 0,0.7525 0.61,1.3625 1.3675,1.3625" />
    <path
       inkscape:connector-curvature="0"
       id="path2060"
       style="fill:#ffffff;fill-opacity:1;fill-rule:nonzero;stroke:none"
       d="m 473.2339,321.83276 0,-2.07 -0.5025,0 0,2.07 -0.77625,0 1.03,1.465 1.025,-1.465 -0.77625,0" />
    <path
       inkscape:connector-curvature="0"
       id="path2062"
       style="fill:#ffffff;fill-opacity:1;fill-rule:nonzero;stroke:none"
       d="m 475.0989,321.22276 0,2.075 0.50875,0 0,-2.075 0.77625,0 -1.03125,-1.46 -1.025,1.46 0.77125,0" />
    <path
       inkscape:connector-curvature="0"
       id="path2064"
       style="fill:#ffffff;fill-opacity:1;fill-rule:nonzero;stroke:none"
       d="m 464.7039,317.05276 3.6225,0 c 0.7525,0 1.3625,-0.61 1.3625,-1.3675 l 0,-3.6225 c 0,-0.7525 -0.61,-1.3625 -1.3625,-1.3625 l -3.6225,0 c -0.7525,0 -1.3675,0.61 -1.3675,1.3625 l 0,3.6225 c 0,0.7575 0.615,1.3675 1.3675,1.3675" />
    <path
       inkscape:connector-curvature="0"
       id="path2066"
       style="fill:#224b6f;fill-opacity:1;fill-rule:nonzero;stroke:none"
       d="m 466.51515,315.10526 c -0.67875,0 -1.23,-0.5525 -1.23,-1.23125 0,-0.67875 0.55125,-1.225 1.23,-1.225 0.67875,0 1.23125,0.54625 1.23125,1.225 0,0.67875 -0.5525,1.23125 -1.23125,1.23125 z m 1.92875,-1.23125 c 0,-0.18 -0.0238,-0.35625 -0.0725,-0.5225 l 0.42875,-0.24375 -0.47875,-0.825 -0.42375,0.24875 c -0.245,-0.25375 -0.5575,-0.435 -0.90875,-0.5275 l 0,-0.4925 -0.9525,0 0,0.4925 c -0.34625,0.0925 -0.65875,0.27375 -0.9025,0.5275 l -0.43,-0.24875 -0.47375,0.825 0.43,0.24375 c -0.0487,0.16625 -0.0788,0.3425 -0.0788,0.5225 0,0.18625 0.03,0.35625 0.0788,0.5225 l -0.43,0.24875 0.47375,0.82625 0.43,-0.25 c 0.24375,0.25 0.55625,0.435 0.9025,0.5225 l 0,0.49875 0.9525,0 0,-0.49875 c 0.35125,-0.0875 0.66375,-0.2725 0.90875,-0.5225 l 0.42375,0.25 0.47875,-0.82625 -0.42875,-0.24875 c 0.0487,-0.16625 0.0725,-0.33625 0.0725,-0.5225" />
    <path
       inkscape:connector-curvature="0"
       id="path2068"
       style="fill:#c25f2c;fill-opacity:1;fill-rule:nonzero;stroke:none"
       d="m 464.7039,324.70401 3.6225,0 c 0.7525,0 1.3625,-0.61 1.3625,-1.3625 l 0,-3.6225 c 0,-0.7525 -0.61,-1.3675 -1.3625,-1.3675 l -3.6225,0 c -0.7525,0 -1.3675,0.615 -1.3675,1.3675 l 0,3.6225 c 0,0.7525 0.615,1.3625 1.3675,1.3625" />
    <path
       inkscape:connector-curvature="0"
       id="path2070"
       style="fill:#ffffff;fill-opacity:1;fill-rule:nonzero;stroke:none"
       d="m 466.51515,319.78776 c -0.96125,0 -1.7425,0.78125 -1.7425,1.7425 0,0.9625 0.78125,1.74375 1.7425,1.74375 0.9625,0 1.74375,-0.78125 1.74375,-1.74375 0,-0.96125 -0.78125,-1.7425 -1.74375,-1.7425 z m 2.1975,1.7425 c 0,1.21625 -0.98125,2.1975 -2.1975,2.1975 -1.21625,0 -2.1975,-0.98125 -2.1975,-2.1975 0,-1.215 0.98125,-2.1975 2.1975,-2.1975 1.21625,0 2.1975,0.9825 2.1975,2.1975" />
    <path
       inkscape:connector-curvature="0"
       id="path2072"
       style="fill:#ffffff;fill-opacity:1;fill-rule:nonzero;stroke:none"
       d="m 466.18765,320.58276 0.65,0 0,1.89 -0.65,0 0,-1.89 z" />
    <path
       inkscape:connector-curvature="0"
       id="path2074"
       style="fill:#c25f2c;fill-opacity:1;fill-rule:nonzero;stroke:none"
       d="m 497.24766,332.41901 c 2.085,9.11625 5.02875,13.6675 5.02875,13.6675 l 14.81,0 c 0,0 2.95,-4.55125 5.035,-13.6675 0.42875,-1.88 0.77125,-3.68625 1.04875,-5.385 l -26.9775,0 c 0.28375,1.69875 0.625,3.505 1.055,5.385" />
    <path
       inkscape:connector-curvature="0"
       id="path2076"
       style="fill:#c25f2c;fill-opacity:1;fill-rule:nonzero;stroke:none"
       d="m 521.90141,338.17651 c -0.3425,0.21875 -0.59125,0.5225 -0.7225,0.86875 -0.39625,1.045 -0.78625,1.9775 -1.1525,2.7875 l 0.0537,0.17125 0.2,0.02 c 4.94125,-2.54375 10.79125,-6.665 12.2025,-14.99 l -2.8475,0 c -1.025,5.5175 -4.20375,8.8375 -7.73375,11.1425" />
  </g>
</svg>
